<svg width="24" height="24" viewBox="0 0 24 24" fill="currentColor" xmlns="http://www.w3.org/2000/svg">
<path d="M16.44 3.22018C15.0831 3.21956 13.7734 3.71784 12.76 4.62018C12.551 4.80712 12.2804 4.91047 12 4.91047C11.7196 4.91047 11.449 4.80712 11.24 4.62018C10.4403 3.90836 9.45177 3.44304 8.39359 3.28031C7.33541 3.11758 6.25276 3.26438 5.27612 3.70302C4.29949 4.14166 3.47057 4.85341 2.88928 5.75248C2.308 6.65155 1.99916 7.69956 2 8.77018C2 13.5202 9.3 19.0802 11.42 20.6002C11.5894 20.7208 11.7921 20.7856 12 20.7856C12.2079 20.7856 12.4106 20.7208 12.58 20.6002C14.7 19.0802 22 13.5202 22 8.77018C21.9974 7.29731 21.4104 5.88567 20.368 4.84513C19.3256 3.80459 17.9129 3.22017 16.44 3.22018ZM12 18.5402C7.93 15.5402 4 11.4502 4 8.77018C4.00271 8.0868 4.20206 7.41865 4.57423 6.8455C4.94641 6.27236 5.47568 5.81845 6.09885 5.53797C6.72202 5.25749 7.41274 5.1623 8.08855 5.26377C8.76435 5.36523 9.39667 5.65906 9.91 6.11018C10.4843 6.6253 11.2285 6.9102 12 6.9102C12.7715 6.9102 13.5157 6.6253 14.09 6.11018C14.6033 5.65906 15.2356 5.36523 15.9115 5.26377C16.5873 5.1623 17.278 5.25749 17.9012 5.53797C18.5243 5.81845 19.0536 6.27236 19.4258 6.8455C19.7979 7.41865 19.9973 8.0868 20 8.77018C20 11.4502 16.07 15.5202 12 18.5402Z"/>
</svg>
