<svg width="24" height="24" viewBox="0 0 24 24" fill="currentColor" xmlns="http://www.w3.org/2000/svg">
<path d="M16.44 3.22018C15.0831 3.21956 13.7734 3.71784 12.76 4.62018C12.551 4.80712 12.2804 4.91047 12 4.91047C11.7196 4.91047 11.449 4.80712 11.24 4.62018C10.4403 3.90836 9.45177 3.44304 8.39359 3.28031C7.33541 3.11758 6.25276 3.26438 5.27612 3.70302C4.29949 4.14166 3.47057 4.85341 2.88928 5.75248C2.308 6.65155 1.99916 7.69956 2 8.77018C2 13.5202 9.3 19.0802 11.42 20.6002C11.5894 20.7208 11.7921 20.7856 12 20.7856C12.2079 20.7856 12.4106 20.7208 12.58 20.6002C14.7 19.0802 22 13.5202 22 8.77018C21.9974 7.29731 21.4104 5.88567 20.368 4.84513C19.3256 3.80459 17.9129 3.22017 16.44 3.22018Z"/>
</svg>
