<svg width="24" height="24" viewBox="0 0 24 24" fill="currentColor" xmlns="http://www.w3.org/2000/svg">
<path d="M16 13.9998C15.4515 14.0015 14.9093 14.1161 14.407 14.3363C13.9046 14.5565 13.453 14.8776 13.08 15.2798L9.77 13.2798C10.0769 12.4471 10.0769 11.5324 9.77 10.6998L13.08 8.69977C13.7174 9.38048 14.5725 9.81711 15.4977 9.93418C16.4228 10.0513 17.3598 9.84141 18.1466 9.34093C18.9335 8.84045 19.5207 8.08078 19.8069 7.19325C20.093 6.30571 20.0601 5.34609 19.7138 4.48026C19.3674 3.61444 18.7295 2.89683 17.9102 2.45147C17.0909 2.00612 16.1417 1.86102 15.2268 2.04125C14.3118 2.22148 13.4886 2.71571 12.8994 3.43852C12.3102 4.16133 11.9921 5.06728 12 5.99977C11.9991 6.33738 12.0428 6.67362 12.13 6.99977L8.66 8.99977C7.92911 8.34631 6.98036 7.98964 6 7.99977C4.93913 7.99977 3.92172 8.4212 3.17157 9.17134C2.42143 9.92149 2 10.9389 2 11.9998C2 13.0606 2.42143 14.0781 3.17157 14.8282C3.92172 15.5783 4.93913 15.9998 6 15.9998C6.98036 16.0099 7.92911 15.6532 8.66 14.9998L12.13 16.9998C12.0428 17.3259 11.9991 17.6622 12 17.9998C12 18.7909 12.2346 19.5643 12.6741 20.222C13.1136 20.8798 13.7384 21.3925 14.4693 21.6953C15.2002 21.998 16.0044 22.0773 16.7804 21.9229C17.5563 21.7686 18.269 21.3876 18.8284 20.8282C19.3878 20.2688 19.7688 19.5561 19.9231 18.7801C20.0775 18.0042 19.9983 17.1999 19.6955 16.469C19.3928 15.7381 18.8801 15.1134 18.2223 14.6739C17.5645 14.2344 16.7911 13.9998 16 13.9998ZM16 3.99977C16.3956 3.99977 16.7822 4.11707 17.1111 4.33683C17.44 4.55659 17.6964 4.86895 17.8478 5.2344C17.9991 5.59985 18.0387 6.00199 17.9616 6.38995C17.8844 6.77791 17.6939 7.13428 17.4142 7.41398C17.1345 7.69369 16.7781 7.88417 16.3902 7.96134C16.0022 8.03851 15.6001 7.9989 15.2346 7.84753C14.8692 7.69615 14.5568 7.43981 14.3371 7.11091C14.1173 6.78201 14 6.39533 14 5.99977C14 5.46934 14.2107 4.96063 14.5858 4.58556C14.9609 4.21048 15.4696 3.99977 16 3.99977ZM6 13.9998C5.60444 13.9998 5.21776 13.8825 4.88886 13.6627C4.55996 13.4429 4.30362 13.1306 4.15224 12.7651C4.00087 12.3997 3.96126 11.9976 4.03843 11.6096C4.1156 11.2216 4.30608 10.8653 4.58579 10.5856C4.86549 10.3059 5.22186 10.1154 5.60982 10.0382C5.99778 9.96103 6.39991 10.0006 6.76537 10.152C7.13082 10.3034 7.44318 10.5597 7.66294 10.8886C7.8827 11.2175 8 11.6042 8 11.9998C8 12.5302 7.78929 13.0389 7.41421 13.414C7.03914 13.7891 6.53043 13.9998 6 13.9998ZM16 19.9998C15.6044 19.9998 15.2178 19.8825 14.8889 19.6627C14.56 19.4429 14.3036 19.1306 14.1522 18.7651C14.0009 18.3997 13.9613 17.9976 14.0384 17.6096C14.1156 17.2216 14.3061 16.8653 14.5858 16.5856C14.8655 16.3059 15.2219 16.1154 15.6098 16.0382C15.9978 15.961 16.3999 16.0006 16.7654 16.152C17.1308 16.3034 17.4432 16.5597 17.6629 16.8886C17.8827 17.2175 18 17.6042 18 17.9998C18 18.5302 17.7893 19.0389 17.4142 19.414C17.0391 19.7891 16.5304 19.9998 16 19.9998Z"/>
</svg>
