<svg width="24" height="25" viewBox="0 0 24 25" fill="currentColor" xmlns="http://www.w3.org/2000/svg">
<path d="M15 17.5C15 17.7652 14.8946 18.0196 14.7071 18.2071C14.5196 18.3946 14.2652 18.5 14 18.5H10C9.73478 18.5 9.48043 18.3946 9.29289 18.2071C9.10536 18.0196 9 17.7652 9 17.5C9 17.2348 9.10536 16.9804 9.29289 16.7929C9.48043 16.6054 9.73478 16.5 10 16.5H14C14.2652 16.5 14.5196 16.6054 14.7071 16.7929C14.8946 16.9804 15 17.2348 15 17.5ZM19 5.5V19.5C19 20.2956 18.6839 21.0587 18.1213 21.6213C17.5587 22.1839 16.7956 22.5 16 22.5H8C7.20435 22.5 6.44129 22.1839 5.87868 21.6213C5.31607 21.0587 5 20.2956 5 19.5V5.5C5 4.70435 5.31607 3.94129 5.87868 3.37868C6.44129 2.81607 7.20435 2.5 8 2.5H16C16.7956 2.5 17.5587 2.81607 18.1213 3.37868C18.6839 3.94129 19 4.70435 19 5.5ZM17 5.5C17 5.23478 16.8946 4.98043 16.7071 4.79289C16.5196 4.60536 16.2652 4.5 16 4.5H8C7.73478 4.5 7.48043 4.60536 7.29289 4.79289C7.10536 4.98043 7 5.23478 7 5.5V19.5C7 19.7652 7.10536 20.0196 7.29289 20.2071C7.48043 20.3946 7.73478 20.5 8 20.5H16C16.2652 20.5 16.5196 20.3946 16.7071 20.2071C16.8946 20.0196 17 19.7652 17 19.5V5.5Z"/>
</svg>
