<svg width="24" height="24" viewBox="0 0 24 24" fill="currentColor" xmlns="http://www.w3.org/2000/svg">
<path fill-rule="evenodd" clip-rule="evenodd" d="M4.09333 11.0407C9.01464 8.89654 12.2963 7.48299 13.9383 6.80003C18.6264 4.85004 19.6006 4.5113 20.2355 4.50012C20.3752 4.49766 20.6874 4.53227 20.8897 4.69639C21.0605 4.83497 21.1075 5.02218 21.13 5.15357C21.1525 5.28496 21.1805 5.58427 21.1582 5.81814C20.9041 8.48753 19.8048 14.9654 19.2456 17.9552C19.009 19.2203 18.543 19.6444 18.0919 19.686C17.1116 19.7762 16.3671 19.0381 15.4176 18.4157C13.9318 17.4417 13.0925 16.8354 11.6502 15.885C9.9835 14.7866 11.064 14.1829 12.0138 13.1964C12.2624 12.9382 16.5818 9.00931 16.6654 8.6529C16.6759 8.60832 16.6856 8.44217 16.5869 8.35443C16.4882 8.2667 16.3425 8.2967 16.2374 8.32056C16.0883 8.35438 13.7148 9.92324 9.11663 13.0271C8.4429 13.4898 7.83266 13.7152 7.2859 13.7034C6.68314 13.6903 5.52368 13.3626 4.66174 13.0824C3.60453 12.7387 2.76428 12.557 2.83745 11.9734C2.87556 11.6694 3.29419 11.3585 4.09333 11.0407Z"/>
</svg>
