<svg width="24" height="24" viewBox="0 0 24 24" fill="currentColor" xmlns="http://www.w3.org/2000/svg">
<path d="M21 16.3198C21.2902 15.4489 21.4421 14.5378 21.45 13.6198C21.4721 12.541 21.21 11.4753 20.69 10.5298C20.4377 10.1024 20.0967 9.73414 19.69 9.44979C19.2375 9.14801 18.7039 8.99106 18.16 8.99979H16C15.9459 9.0016 15.892 8.99182 15.842 8.97113C15.792 8.95043 15.747 8.91929 15.71 8.87979C15.6365 8.80066 15.5939 8.69773 15.59 8.58979V8.47979L16.4 6.64979C16.565 6.27126 16.6501 5.86273 16.65 5.44979C16.6493 4.65441 16.3328 3.89186 15.77 3.32979L15.55 3.10979C15.3478 2.90938 15.1052 2.75445 14.8383 2.65535C14.5714 2.55626 14.2864 2.51528 14.0024 2.53516C13.7184 2.55504 13.442 2.63531 13.1915 2.77063C12.941 2.90594 12.7223 3.09317 12.55 3.31979L8.24 8.99979C7.83526 8.54548 7.30194 8.22497 6.71081 8.08081C6.11968 7.93664 5.49869 7.97563 4.93023 8.1926C4.36178 8.40957 3.87273 8.79426 3.52799 9.29562C3.18325 9.79699 2.99911 10.3913 3 10.9998V18.9998C3 19.7954 3.31607 20.5585 3.87868 21.1211C4.44129 21.6837 5.20435 21.9998 6 21.9998C6.70095 21.9984 7.37833 21.7466 7.91 21.2898C8.44697 21.7442 9.12655 21.9956 9.83 21.9998H15.92C16.5804 22.0063 17.2301 21.8335 17.8 21.4998C18.6175 20.9828 19.2753 20.2488 19.7 19.3798C20.2191 18.3984 20.654 17.3747 21 16.3198ZM6 19.9998C5.73479 19.9998 5.48043 19.8944 5.2929 19.7069C5.10536 19.5194 5 19.265 5 18.9998V10.9998C5 10.7346 5.10536 10.4802 5.2929 10.2927C5.48043 10.1051 5.73479 9.99979 6 9.99979C6.26522 9.99979 6.51957 10.1051 6.70711 10.2927C6.89465 10.4802 7 10.7346 7 10.9998V18.9998C7 19.265 6.89465 19.5194 6.70711 19.7069C6.51957 19.8944 6.26522 19.9998 6 19.9998ZM17.56 18.9998C17.3538 19.2941 17.0922 19.5454 16.79 19.7398C16.5255 19.8911 16.2246 19.9672 15.92 19.9598H9.83C9.6984 19.9606 9.56793 19.9353 9.4461 19.8856C9.32426 19.8358 9.21344 19.7625 9.12 19.6698L9 19.5298C9.01528 19.3535 9.01528 19.1761 9 18.9998V11.3298L14.11 4.51979L14.33 4.73979C14.4227 4.83323 14.496 4.94405 14.5458 5.06588C14.5955 5.18772 14.6208 5.31818 14.62 5.44979C14.618 5.58791 14.5873 5.7241 14.53 5.84979L13.7 7.73979V7.82979C13.6133 8.07376 13.5693 8.33086 13.57 8.58979C13.57 8.90797 13.633 9.22299 13.7553 9.5167C13.8777 9.81041 14.057 10.077 14.2829 10.301C14.5088 10.5251 14.7769 10.7022 15.0716 10.8221C15.3663 10.942 15.6818 11.0024 16 10.9998H18.21C18.3384 10.9989 18.464 11.0373 18.57 11.1098C18.8467 11.3241 19.0523 11.6168 19.16 11.9498C19.3616 12.4831 19.46 13.0498 19.45 13.6198C19.4452 14.3208 19.327 15.0165 19.1 15.6798C18.7473 16.8541 18.2287 17.9721 17.56 18.9998Z"/>
</svg>
